<svg xmlns="http://www.w3.org/2000/svg" viewBox="0 0 260 48" role="img" aria-label="Livello 3 · Co-creazione — IA al fianco, con vaglio critico"><title>Gradiente IA · Livello 3 · Co-creazione</title><rect x="0" y="0" width="260" height="48" rx="24" fill="#2a8c82"/><g fill="#ffffff" font-family="'Space Grotesk', 'Helvetica Neue', Helvetica, Arial, sans-serif" font-weight="700"><text x="24" y="30.5" font-size="18" text-anchor="middle">3</text><text x="82" y="29.5" font-size="15" letter-spacing="1.2">CO-CREAZIONE</text></g><line x1="42" y1="12" x2="42" y2="36" stroke="#ffffff" stroke-width="1.2" stroke-linecap="round"/><g transform="translate(50 13) scale(0.9166666666666666)" fill="none" stroke="#ffffff" stroke-width="2" stroke-linecap="round" stroke-linejoin="round"><path d="M8 14a2 2 0 0 0-1.963 1.615l-1.018 5.193A1 1 0 0 0 6 22h12a1 1 0 0 0 .981-1.192l-1.018-5.193A2 2 0 0 0 16 14z"/><path d="m17 2-1 12"/><path d="M8.006 14 7 2"/><path d="M7.565 8.787A5 5 0 0 0 12 8a5 5 0 0 1 4.56-.75"/><path d="M19 2H5a2 2 0 0 0-2 2v5a2 2 0 0 0 .688 1.5"/><path d="M12 18h.01"/></g></svg>
